<?xml version="1.0" encoding="UTF-8"?>
<svg version="1.1" xmlns="http://www.w3.org/2000/svg" width="16" height="16">
<path d="M0 0 C1.3303125 0.00773437 1.3303125 0.00773437 2.6875 0.015625 C3.574375 0.01046875 4.46125 0.0053125 5.375 0 C7.6875 0.265625 7.6875 0.265625 9.6875 2.265625 C9.91796875 4.83203125 9.91796875 4.83203125 9.875 7.828125 C9.86533203 9.31505859 9.86533203 9.31505859 9.85546875 10.83203125 C9.6875 13.265625 9.6875 13.265625 8.6875 14.265625 C6.87822719 14.39050258 5.06353893 14.44133346 3.25 14.453125 C2.26128906 14.46730469 1.27257812 14.48148438 0.25390625 14.49609375 C-2.3125 14.265625 -2.3125 14.265625 -4.3125 12.265625 C-4.578125 9.953125 -4.578125 9.953125 -4.5625 7.265625 C-4.56765625 6.37875 -4.5728125 5.491875 -4.578125 4.578125 C-4.20431154 1.323749 -3.254376 0.37381346 0 0 Z " fill="#13C3AC" transform="translate(5.3125,0.734375)"/>
<path d="M0 0 C7.42608696 -0.48695652 7.42608696 -0.48695652 10.0625 1.75 C11.14715729 4.3531775 11.01560704 5.41481845 10 8 C8.68 7.67 7.36 7.34 6 7 C6 6.34 6 5.68 6 5 C4.02 5 2.04 5 0 5 C0 4.34 0 3.68 0 3 C1.98 3 3.96 3 6 3 C3.03 2.505 3.03 2.505 0 2 C0 1.34 0 0.68 0 0 Z " fill="#B1EBE3" transform="translate(4,7)"/>
</svg>
